{
    "asset" : {
        "generator" : "Khronos glTF Blender I/O v3.2.40",
        "version" : "2.0"
    },
    "scene" : 0,
    "scenes" : [
        {
            "name" : "Scene",
            "nodes" : [
                0,
                1,
                2,
                3,
                4,
                5,
                6,
                7,
                8
            ]
        }
    ],
    "nodes" : [
        {
            "mesh" : 0,
            "name" : "Cube",
            "scale" : [
                0.8889999985694885,
                1,
                1.23371422290802
            ],
            "translation" : [
                0,
                0.035283446311950684,
                0
            ]
        },
        {
            "mesh" : 1,
            "name" : "Cube.003",
            "scale" : [
                0.2349500060081482,
                0.2921000123023987,
                0.22224999964237213
            ],
            "translation" : [
                -1.5278667211532593,
                0.3387405276298523,
                1.1498380899429321
            ]
        },
        {
            "mesh" : 2,
            "name" : "Cube.004",
            "scale" : [
                0.20319999754428864,
                0.2984499931335449,
                0.2730500102043152
            ],
            "translation" : [
                -1.5672447681427002,
                0.35297489166259766,
                0.6457995176315308
            ]
        },
        {
            "mesh" : 3,
            "name" : "Cube.005",
            "scale" : [
                1.0160000324249268,
                0.2540000081062317,
                0.7620000243186951
            ],
            "translation" : [
                -0.7602143883705139,
                0.3197527527809143,
                -1.4001070261001587
            ]
        },
        {
            "mesh" : 4,
            "name" : "Cube.006",
            "scale" : [
                0.43814998865127563,
                0.7683500051498413,
                0.22859999537467957
            ],
            "translation" : [
                1.3344773054122925,
                0.8277914524078369,
                -1.9251474142074585
            ]
        },
        {
            "mesh" : 5,
            "name" : "desk",
            "rotation" : [
                -1,
                0,
                0,
                1.910685676922942e-15
            ],
            "scale" : [
                0.028574999421834946,
                0.34290000796318054,
                0.028574999421834946
            ],
            "translation" : [
                -1.7153319120407104,
                0.40411999821662903,
                2.0788393020629883
            ]
        },
        {
            "mesh" : 6,
            "name" : "table",
            "rotation" : [
                0,
                -1,
                0,
                4.371138828673793e-08
            ],
            "scale" : [
                0.019050000235438347,
                0.04127499833703041,
                0.03859852999448776
            ],
            "translation" : [
                -0.07967252284288406,
                0.10084539651870728,
                1.6388652324676514
            ]
        },
        {
            "mesh" : 7,
            "name" : "Mirror Frame",
            "scale" : [
                0.2730500102043152,
                0.8064500093460083,
                0.019050000235438347
            ],
            "translation" : [
                1.4157607555389404,
                0.8613266944885254,
                1.915050745010376
            ]
        },
        {
            "mesh" : 8,
            "name" : "Mirror",
            "scale" : [
                0.26669999957084656,
                0.8127999901771545,
                0.0005000000237487257
            ],
            "translation" : [
                1.4157607555389404,
                0.8498744964599609,
                1.9035141468048096
            ]
        }
    ],
    "materials" : [
        {
            "doubleSided" : true,
            "name" : "Material.001",
            "pbrMetallicRoughness" : {
                "baseColorFactor" : [
                    0.8000000715255737,
                    0.6944406628608704,
                    0.5249796509742737,
                    1
                ],
                "metallicFactor" : 0,
                "roughnessFactor" : 0
            }
        },
        {
            "doubleSided" : true,
            "name" : "Material.002",
            "pbrMetallicRoughness" : {}
        }
    ],
    "meshes" : [
        {
            "name" : "Cube.001",
            "primitives" : [
                {
                    "attributes" : {
                        "POSITION" : 0,
                        "NORMAL" : 1,
                        "TEXCOORD_0" : 2
                    },
                    "indices" : 3,
                    "material" : 0
                }
            ]
        },
        {
            "name" : "Cube.004",
            "primitives" : [
                {
                    "attributes" : {
                        "POSITION" : 4,
                        "NORMAL" : 5,
                        "TEXCOORD_0" : 6
                    },
                    "indices" : 3
                }
            ]
        },
        {
            "name" : "Cube.005",
            "primitives" : [
                {
                    "attributes" : {
                        "POSITION" : 7,
                        "NORMAL" : 8,
                        "TEXCOORD_0" : 9
                    },
                    "indices" : 3
                }
            ]
        },
        {
            "name" : "Cube.006",
            "primitives" : [
                {
                    "attributes" : {
                        "POSITION" : 10,
                        "NORMAL" : 11,
                        "TEXCOORD_0" : 12
                    },
                    "indices" : 3
                }
            ]
        },
        {
            "name" : "Cube.007",
            "primitives" : [
                {
                    "attributes" : {
                        "POSITION" : 13,
                        "NORMAL" : 14,
                        "TEXCOORD_0" : 15
                    },
                    "indices" : 3
                }
            ]
        },
        {
            "name" : "Cube.014",
            "primitives" : [
                {
                    "attributes" : {
                        "POSITION" : 16,
                        "NORMAL" : 17,
                        "TEXCOORD_0" : 18
                    },
                    "indices" : 19
                }
            ]
        },
        {
            "name" : "Cube.021",
            "primitives" : [
                {
                    "attributes" : {
                        "POSITION" : 20,
                        "NORMAL" : 21,
                        "TEXCOORD_0" : 22
                    },
                    "indices" : 23
                }
            ]
        },
        {
            "name" : "Cube.022",
            "primitives" : [
                {
                    "attributes" : {
                        "POSITION" : 24,
                        "NORMAL" : 25,
                        "TEXCOORD_0" : 26
                    },
                    "indices" : 27
                }
            ]
        },
        {
            "name" : "Cube.023",
            "primitives" : [
                {
                    "attributes" : {
                        "POSITION" : 28,
                        "NORMAL" : 29,
                        "TEXCOORD_0" : 30
                    },
                    "indices" : 3,
                    "material" : 1
                }
            ]
        }
    ],
    "accessors" : [
        {
            "bufferView" : 0,
            "componentType" : 5126,
            "count" : 24,
            "max" : [
                2,
                0.02500000037252903,
                1.75
            ],
            "min" : [
                -2,
                -0.02500000037252903,
                -1.75
            ],
            "type" : "VEC3"
        },
        {
            "bufferView" : 1,
            "componentType" : 5126,
            "count" : 24,
            "type" : "VEC3"
        },
        {
            "bufferView" : 2,
            "componentType" : 5126,
            "count" : 24,
            "type" : "VEC2"
        },
        {
            "bufferView" : 3,
            "componentType" : 5123,
            "count" : 36,
            "type" : "SCALAR"
        },
        {
            "bufferView" : 4,
            "componentType" : 5126,
            "count" : 24,
            "max" : [
                1,
                1,
                1
            ],
            "min" : [
                -1,
                -1,
                -1
            ],
            "type" : "VEC3"
        },
        {
            "bufferView" : 5,
            "componentType" : 5126,
            "count" : 24,
            "type" : "VEC3"
        },
        {
            "bufferView" : 6,
            "componentType" : 5126,
            "count" : 24,
            "type" : "VEC2"
        },
        {
            "bufferView" : 7,
            "componentType" : 5126,
            "count" : 24,
            "max" : [
                1,
                1,
                1
            ],
            "min" : [
                -1,
                -1,
                -1
            ],
            "type" : "VEC3"
        },
        {
            "bufferView" : 8,
            "componentType" : 5126,
            "count" : 24,
            "type" : "VEC3"
        },
        {
            "bufferView" : 9,
            "componentType" : 5126,
            "count" : 24,
            "type" : "VEC2"
        },
        {
            "bufferView" : 10,
            "componentType" : 5126,
            "count" : 24,
            "max" : [
                1,
                1,
                1
            ],
            "min" : [
                -1,
                -1,
                -1
            ],
            "type" : "VEC3"
        },
        {
            "bufferView" : 11,
            "componentType" : 5126,
            "count" : 24,
            "type" : "VEC3"
        },
        {
            "bufferView" : 12,
            "componentType" : 5126,
            "count" : 24,
            "type" : "VEC2"
        },
        {
            "bufferView" : 13,
            "componentType" : 5126,
            "count" : 24,
            "max" : [
                1,
                1,
                1
            ],
            "min" : [
                -1,
                -1,
                -1
            ],
            "type" : "VEC3"
        },
        {
            "bufferView" : 14,
            "componentType" : 5126,
            "count" : 24,
            "type" : "VEC3"
        },
        {
            "bufferView" : 15,
            "componentType" : 5126,
            "count" : 24,
            "type" : "VEC2"
        },
        {
            "bufferView" : 16,
            "componentType" : 5126,
            "count" : 168,
            "max" : [
                54.93743133544922,
                1.0000003576278687,
                24.802154541015625
            ],
            "min" : [
                -1.9514656066894531,
                -1.1114168167114258,
                -1.8645200729370117
            ],
            "type" : "VEC3"
        },
        {
            "bufferView" : 17,
            "componentType" : 5126,
            "count" : 168,
            "type" : "VEC3"
        },
        {
            "bufferView" : 18,
            "componentType" : 5126,
            "count" : 168,
            "type" : "VEC2"
        },
        {
            "bufferView" : 19,
            "componentType" : 5123,
            "count" : 264,
            "type" : "SCALAR"
        },
        {
            "bufferView" : 20,
            "componentType" : 5126,
            "count" : 720,
            "max" : [
                1.0326786041259766,
                18.8245792388916,
                1.9887099266052246
            ],
            "min" : [
                -56.710105895996094,
                -1,
                -12.488527297973633
            ],
            "type" : "VEC3"
        },
        {
            "bufferView" : 21,
            "componentType" : 5126,
            "count" : 720,
            "type" : "VEC3"
        },
        {
            "bufferView" : 22,
            "componentType" : 5126,
            "count" : 720,
            "type" : "VEC2"
        },
        {
            "bufferView" : 23,
            "componentType" : 5123,
            "count" : 1272,
            "type" : "SCALAR"
        },
        {
            "bufferView" : 24,
            "componentType" : 5126,
            "count" : 48,
            "max" : [
                0.9999999403953552,
                0.9999999403953552,
                0.9999999403953552
            ],
            "min" : [
                -0.9999999403953552,
                -0.9999999403953552,
                -0.9999999403953552
            ],
            "type" : "VEC3"
        },
        {
            "bufferView" : 25,
            "componentType" : 5126,
            "count" : 48,
            "type" : "VEC3"
        },
        {
            "bufferView" : 26,
            "componentType" : 5126,
            "count" : 48,
            "type" : "VEC2"
        },
        {
            "bufferView" : 27,
            "componentType" : 5123,
            "count" : 84,
            "type" : "SCALAR"
        },
        {
            "bufferView" : 28,
            "componentType" : 5126,
            "count" : 24,
            "max" : [
                1,
                1,
                1
            ],
            "min" : [
                -1,
                -1,
                -1
            ],
            "type" : "VEC3"
        },
        {
            "bufferView" : 29,
            "componentType" : 5126,
            "count" : 24,
            "type" : "VEC3"
        },
        {
            "bufferView" : 30,
            "componentType" : 5126,
            "count" : 24,
            "type" : "VEC2"
        }
    ],
    "bufferViews" : [
        {
            "buffer" : 0,
            "byteLength" : 288,
            "byteOffset" : 0
        },
        {
            "buffer" : 0,
            "byteLength" : 288,
            "byteOffset" : 288
        },
        {
            "buffer" : 0,
            "byteLength" : 192,
            "byteOffset" : 576
        },
        {
            "buffer" : 0,
            "byteLength" : 72,
            "byteOffset" : 768
        },
        {
            "buffer" : 0,
            "byteLength" : 288,
            "byteOffset" : 840
        },
        {
            "buffer" : 0,
            "byteLength" : 288,
            "byteOffset" : 1128
        },
        {
            "buffer" : 0,
            "byteLength" : 192,
            "byteOffset" : 1416
        },
        {
            "buffer" : 0,
            "byteLength" : 288,
            "byteOffset" : 1608
        },
        {
            "buffer" : 0,
            "byteLength" : 288,
            "byteOffset" : 1896
        },
        {
            "buffer" : 0,
            "byteLength" : 192,
            "byteOffset" : 2184
        },
        {
            "buffer" : 0,
            "byteLength" : 288,
            "byteOffset" : 2376
        },
        {
            "buffer" : 0,
            "byteLength" : 288,
            "byteOffset" : 2664
        },
        {
            "buffer" : 0,
            "byteLength" : 192,
            "byteOffset" : 2952
        },
        {
            "buffer" : 0,
            "byteLength" : 288,
            "byteOffset" : 3144
        },
        {
            "buffer" : 0,
            "byteLength" : 288,
            "byteOffset" : 3432
        },
        {
            "buffer" : 0,
            "byteLength" : 192,
            "byteOffset" : 3720
        },
        {
            "buffer" : 0,
            "byteLength" : 2016,
            "byteOffset" : 3912
        },
        {
            "buffer" : 0,
            "byteLength" : 2016,
            "byteOffset" : 5928
        },
        {
            "buffer" : 0,
            "byteLength" : 1344,
            "byteOffset" : 7944
        },
        {
            "buffer" : 0,
            "byteLength" : 528,
            "byteOffset" : 9288
        },
        {
            "buffer" : 0,
            "byteLength" : 8640,
            "byteOffset" : 9816
        },
        {
            "buffer" : 0,
            "byteLength" : 8640,
            "byteOffset" : 18456
        },
        {
            "buffer" : 0,
            "byteLength" : 5760,
            "byteOffset" : 27096
        },
        {
            "buffer" : 0,
            "byteLength" : 2544,
            "byteOffset" : 32856
        },
        {
            "buffer" : 0,
            "byteLength" : 576,
            "byteOffset" : 35400
        },
        {
            "buffer" : 0,
            "byteLength" : 576,
            "byteOffset" : 35976
        },
        {
            "buffer" : 0,
            "byteLength" : 384,
            "byteOffset" : 36552
        },
        {
            "buffer" : 0,
            "byteLength" : 168,
            "byteOffset" : 36936
        },
        {
            "buffer" : 0,
            "byteLength" : 288,
            "byteOffset" : 37104
        },
        {
            "buffer" : 0,
            "byteLength" : 288,
            "byteOffset" : 37392
        },
        {
            "buffer" : 0,
            "byteLength" : 192,
            "byteOffset" : 37680
        }
    ],
    "buffers" : [
        {
            "byteLength" : 37872,
            "uri" : "data:application/octet-stream;base64,"
        }
    ]
}
